<mxfile host="app.diagrams.net" modified="2024-04-12T15:50:48.994Z" agent="Mozilla/5.0 (Windows NT 10.0; Win64; x64) AppleWebKit/537.36 (KHTML, like Gecko) Chrome/123.0.0.0 Safari/537.36 Edg/123.0.0.0" etag="YxSuNWK9GM8OPAK3oS8N" version="24.2.3" type="device" pages="2">
  <diagram id="--KN9wBG1ufBJd41Dy8y" name="Página-1">
    <mxGraphModel dx="1766" dy="773" grid="1" gridSize="10" guides="1" tooltips="1" connect="1" arrows="1" fold="1" page="1" pageScale="1" pageWidth="827" pageHeight="1169" math="0" shadow="0">
      <root>
        <mxCell id="0" />
        <mxCell id="1" parent="0" />
        <mxCell id="BkAY-ERydtgyIVEjng0j-1" value="Nombre" style="ellipse;whiteSpace=wrap;html=1;" parent="1" vertex="1">
          <mxGeometry x="70" y="90" width="70" height="40" as="geometry" />
        </mxCell>
        <mxCell id="BkAY-ERydtgyIVEjng0j-2" value="Paciente" style="rounded=0;whiteSpace=wrap;html=1;" parent="1" vertex="1">
          <mxGeometry x="260" y="150" width="80" height="40" as="geometry" />
        </mxCell>
        <mxCell id="BkAY-ERydtgyIVEjng0j-3" value="Edad" style="ellipse;whiteSpace=wrap;html=1;" parent="1" vertex="1">
          <mxGeometry x="160" y="50" width="70" height="40" as="geometry" />
        </mxCell>
        <mxCell id="BkAY-ERydtgyIVEjng0j-4" value="Genero" style="ellipse;whiteSpace=wrap;html=1;" parent="1" vertex="1">
          <mxGeometry x="260" y="50" width="70" height="40" as="geometry" />
        </mxCell>
        <mxCell id="BkAY-ERydtgyIVEjng0j-6" value="N° de Paciente" style="ellipse;whiteSpace=wrap;html=1;" parent="1" vertex="1">
          <mxGeometry x="358" y="50" width="70" height="40" as="geometry" />
        </mxCell>
        <mxCell id="BkAY-ERydtgyIVEjng0j-7" value="Fecha de Ingreso" style="ellipse;whiteSpace=wrap;html=1;" parent="1" vertex="1">
          <mxGeometry x="460" y="90" width="70" height="40" as="geometry" />
        </mxCell>
        <mxCell id="BkAY-ERydtgyIVEjng0j-11" value="" style="endArrow=none;html=1;rounded=0;entryX=1;entryY=1;entryDx=0;entryDy=0;exitX=0;exitY=0.5;exitDx=0;exitDy=0;" parent="1" source="BkAY-ERydtgyIVEjng0j-2" target="BkAY-ERydtgyIVEjng0j-1" edge="1">
          <mxGeometry width="50" height="50" relative="1" as="geometry">
            <mxPoint x="320" y="180" as="sourcePoint" />
            <mxPoint x="150" y="130" as="targetPoint" />
          </mxGeometry>
        </mxCell>
        <mxCell id="BkAY-ERydtgyIVEjng0j-12" value="" style="endArrow=none;html=1;rounded=0;entryX=0.5;entryY=1;entryDx=0;entryDy=0;exitX=0.25;exitY=0;exitDx=0;exitDy=0;" parent="1" source="BkAY-ERydtgyIVEjng0j-2" target="BkAY-ERydtgyIVEjng0j-3" edge="1">
          <mxGeometry width="50" height="50" relative="1" as="geometry">
            <mxPoint x="270" y="140" as="sourcePoint" />
            <mxPoint x="200" y="100" as="targetPoint" />
          </mxGeometry>
        </mxCell>
        <mxCell id="BkAY-ERydtgyIVEjng0j-13" value="" style="endArrow=none;html=1;rounded=0;entryX=1;entryY=0.5;entryDx=0;entryDy=0;exitX=0;exitY=1;exitDx=0;exitDy=0;" parent="1" source="BkAY-ERydtgyIVEjng0j-7" target="BkAY-ERydtgyIVEjng0j-2" edge="1">
          <mxGeometry width="50" height="50" relative="1" as="geometry">
            <mxPoint x="420" y="136" as="sourcePoint" />
            <mxPoint x="300" y="100" as="targetPoint" />
          </mxGeometry>
        </mxCell>
        <mxCell id="BkAY-ERydtgyIVEjng0j-15" value="" style="endArrow=none;html=1;rounded=0;entryX=0.5;entryY=1;entryDx=0;entryDy=0;exitX=0.75;exitY=0;exitDx=0;exitDy=0;" parent="1" source="BkAY-ERydtgyIVEjng0j-2" target="BkAY-ERydtgyIVEjng0j-6" edge="1">
          <mxGeometry width="50" height="50" relative="1" as="geometry">
            <mxPoint x="280" y="190" as="sourcePoint" />
            <mxPoint x="160" y="154" as="targetPoint" />
          </mxGeometry>
        </mxCell>
        <mxCell id="BkAY-ERydtgyIVEjng0j-16" value="" style="endArrow=none;html=1;rounded=0;entryX=0.5;entryY=1;entryDx=0;entryDy=0;exitX=0.5;exitY=0;exitDx=0;exitDy=0;" parent="1" source="BkAY-ERydtgyIVEjng0j-2" target="BkAY-ERydtgyIVEjng0j-4" edge="1">
          <mxGeometry width="50" height="50" relative="1" as="geometry">
            <mxPoint x="295" y="140" as="sourcePoint" />
            <mxPoint x="170" y="164" as="targetPoint" />
          </mxGeometry>
        </mxCell>
        <mxCell id="BkAY-ERydtgyIVEjng0j-17" value="Medico" style="rounded=0;whiteSpace=wrap;html=1;" parent="1" vertex="1">
          <mxGeometry x="790" y="140" width="80" height="40" as="geometry" />
        </mxCell>
        <mxCell id="BkAY-ERydtgyIVEjng0j-18" value="Nombre" style="ellipse;whiteSpace=wrap;html=1;" parent="1" vertex="1">
          <mxGeometry x="600" y="80" width="70" height="40" as="geometry" />
        </mxCell>
        <mxCell id="BkAY-ERydtgyIVEjng0j-19" value="Cedula Profesional" style="ellipse;whiteSpace=wrap;html=1;" parent="1" vertex="1">
          <mxGeometry x="740" y="40" width="70" height="40" as="geometry" />
        </mxCell>
        <mxCell id="BkAY-ERydtgyIVEjng0j-20" value="Especialidad" style="ellipse;whiteSpace=wrap;html=1;" parent="1" vertex="1">
          <mxGeometry x="860" y="40" width="70" height="40" as="geometry" />
        </mxCell>
        <mxCell id="BkAY-ERydtgyIVEjng0j-21" value="Cargo" style="ellipse;whiteSpace=wrap;html=1;" parent="1" vertex="1">
          <mxGeometry x="990" y="80" width="70" height="40" as="geometry" />
        </mxCell>
        <mxCell id="BkAY-ERydtgyIVEjng0j-22" value="" style="endArrow=none;html=1;rounded=0;entryX=1;entryY=1;entryDx=0;entryDy=0;exitX=0;exitY=0.5;exitDx=0;exitDy=0;" parent="1" source="BkAY-ERydtgyIVEjng0j-17" target="BkAY-ERydtgyIVEjng0j-18" edge="1">
          <mxGeometry width="50" height="50" relative="1" as="geometry">
            <mxPoint x="790" y="166" as="sourcePoint" />
            <mxPoint x="660" y="120" as="targetPoint" />
          </mxGeometry>
        </mxCell>
        <mxCell id="BkAY-ERydtgyIVEjng0j-23" value="" style="endArrow=none;html=1;rounded=0;entryX=0.5;entryY=1;entryDx=0;entryDy=0;exitX=0.25;exitY=0;exitDx=0;exitDy=0;" parent="1" source="BkAY-ERydtgyIVEjng0j-17" target="BkAY-ERydtgyIVEjng0j-19" edge="1">
          <mxGeometry width="50" height="50" relative="1" as="geometry">
            <mxPoint x="845" y="140" as="sourcePoint" />
            <mxPoint x="760" y="80" as="targetPoint" />
          </mxGeometry>
        </mxCell>
        <mxCell id="BkAY-ERydtgyIVEjng0j-24" value="" style="endArrow=none;html=1;rounded=0;entryX=0.5;entryY=1;entryDx=0;entryDy=0;exitX=0.75;exitY=0;exitDx=0;exitDy=0;" parent="1" source="BkAY-ERydtgyIVEjng0j-17" target="BkAY-ERydtgyIVEjng0j-20" edge="1">
          <mxGeometry width="50" height="50" relative="1" as="geometry">
            <mxPoint x="930" y="140" as="sourcePoint" />
            <mxPoint x="845" y="80" as="targetPoint" />
          </mxGeometry>
        </mxCell>
        <mxCell id="BkAY-ERydtgyIVEjng0j-25" value="" style="endArrow=none;html=1;rounded=0;entryX=1;entryY=0.5;entryDx=0;entryDy=0;exitX=0;exitY=1;exitDx=0;exitDy=0;" parent="1" source="BkAY-ERydtgyIVEjng0j-21" target="BkAY-ERydtgyIVEjng0j-17" edge="1">
          <mxGeometry width="50" height="50" relative="1" as="geometry">
            <mxPoint x="1000" y="120" as="sourcePoint" />
            <mxPoint x="870" y="166" as="targetPoint" />
          </mxGeometry>
        </mxCell>
        <mxCell id="BkAY-ERydtgyIVEjng0j-26" value="Analisis" style="rounded=0;whiteSpace=wrap;html=1;" parent="1" vertex="1">
          <mxGeometry x="1320" y="90" width="80" height="40" as="geometry" />
        </mxCell>
        <mxCell id="BkAY-ERydtgyIVEjng0j-27" value="N° de Paciente" style="ellipse;whiteSpace=wrap;html=1;" parent="1" vertex="1">
          <mxGeometry x="1170" y="50" width="70" height="40" as="geometry" />
        </mxCell>
        <mxCell id="BkAY-ERydtgyIVEjng0j-28" value="Tipo" style="ellipse;whiteSpace=wrap;html=1;" parent="1" vertex="1">
          <mxGeometry x="1320" width="70" height="40" as="geometry" />
        </mxCell>
        <mxCell id="BkAY-ERydtgyIVEjng0j-29" value="Resultado" style="ellipse;whiteSpace=wrap;html=1;" parent="1" vertex="1">
          <mxGeometry x="1480" y="50" width="70" height="40" as="geometry" />
        </mxCell>
        <mxCell id="BkAY-ERydtgyIVEjng0j-30" value="" style="endArrow=none;html=1;rounded=0;entryX=1;entryY=1;entryDx=0;entryDy=0;exitX=0;exitY=0.5;exitDx=0;exitDy=0;" parent="1" source="BkAY-ERydtgyIVEjng0j-26" target="BkAY-ERydtgyIVEjng0j-27" edge="1">
          <mxGeometry width="50" height="50" relative="1" as="geometry">
            <mxPoint x="1380" y="210" as="sourcePoint" />
            <mxPoint x="1430" y="160" as="targetPoint" />
          </mxGeometry>
        </mxCell>
        <mxCell id="BkAY-ERydtgyIVEjng0j-32" value="" style="endArrow=none;html=1;rounded=0;entryX=0.5;entryY=1;entryDx=0;entryDy=0;exitX=0.5;exitY=0;exitDx=0;exitDy=0;" parent="1" source="BkAY-ERydtgyIVEjng0j-26" target="BkAY-ERydtgyIVEjng0j-28" edge="1">
          <mxGeometry width="50" height="50" relative="1" as="geometry">
            <mxPoint x="1355" y="90" as="sourcePoint" />
            <mxPoint x="1328" y="50" as="targetPoint" />
          </mxGeometry>
        </mxCell>
        <mxCell id="BkAY-ERydtgyIVEjng0j-33" value="" style="endArrow=none;html=1;rounded=0;entryX=1;entryY=0.5;entryDx=0;entryDy=0;exitX=0;exitY=1;exitDx=0;exitDy=0;" parent="1" source="BkAY-ERydtgyIVEjng0j-29" target="BkAY-ERydtgyIVEjng0j-26" edge="1">
          <mxGeometry width="50" height="50" relative="1" as="geometry">
            <mxPoint x="1498" y="130" as="sourcePoint" />
            <mxPoint x="1408" y="104" as="targetPoint" />
          </mxGeometry>
        </mxCell>
        <mxCell id="9VuMjuRBCp5YEHV3CmES-2" value="ID_Medico" style="ellipse;whiteSpace=wrap;html=1;" vertex="1" parent="1">
          <mxGeometry x="590" y="160" width="70" height="40" as="geometry" />
        </mxCell>
        <mxCell id="9VuMjuRBCp5YEHV3CmES-3" value="" style="endArrow=none;html=1;rounded=0;entryX=1;entryY=0.5;entryDx=0;entryDy=0;exitX=0;exitY=1;exitDx=0;exitDy=0;" edge="1" parent="1" source="BkAY-ERydtgyIVEjng0j-17" target="9VuMjuRBCp5YEHV3CmES-2">
          <mxGeometry width="50" height="50" relative="1" as="geometry">
            <mxPoint x="800" y="170" as="sourcePoint" />
            <mxPoint x="670" y="124" as="targetPoint" />
          </mxGeometry>
        </mxCell>
        <mxCell id="9VuMjuRBCp5YEHV3CmES-4" value="ID_Medico" style="ellipse;whiteSpace=wrap;html=1;" vertex="1" parent="1">
          <mxGeometry x="1181" y="160" width="70" height="40" as="geometry" />
        </mxCell>
        <mxCell id="9VuMjuRBCp5YEHV3CmES-5" value="" style="endArrow=none;html=1;rounded=0;entryX=1;entryY=0.5;entryDx=0;entryDy=0;exitX=0.25;exitY=1;exitDx=0;exitDy=0;" edge="1" parent="1" source="BkAY-ERydtgyIVEjng0j-26" target="9VuMjuRBCp5YEHV3CmES-4">
          <mxGeometry width="50" height="50" relative="1" as="geometry">
            <mxPoint x="1381" y="170" as="sourcePoint" />
            <mxPoint x="1251" y="170" as="targetPoint" />
          </mxGeometry>
        </mxCell>
        <mxCell id="9VuMjuRBCp5YEHV3CmES-6" value="Hospital" style="rounded=0;whiteSpace=wrap;html=1;" vertex="1" parent="1">
          <mxGeometry x="260" y="590" width="80" height="40" as="geometry" />
        </mxCell>
        <mxCell id="9VuMjuRBCp5YEHV3CmES-7" value="Nombre" style="ellipse;whiteSpace=wrap;html=1;" vertex="1" parent="1">
          <mxGeometry x="110" y="510" width="70" height="40" as="geometry" />
        </mxCell>
        <mxCell id="9VuMjuRBCp5YEHV3CmES-8" value="" style="endArrow=none;html=1;rounded=0;entryX=1;entryY=1;entryDx=0;entryDy=0;exitX=0;exitY=0.25;exitDx=0;exitDy=0;" edge="1" parent="1" source="9VuMjuRBCp5YEHV3CmES-6" target="9VuMjuRBCp5YEHV3CmES-7">
          <mxGeometry width="50" height="50" relative="1" as="geometry">
            <mxPoint x="300" y="590" as="sourcePoint" />
            <mxPoint x="190" y="550" as="targetPoint" />
          </mxGeometry>
        </mxCell>
        <mxCell id="9VuMjuRBCp5YEHV3CmES-9" value="Direccion" style="ellipse;whiteSpace=wrap;html=1;" vertex="1" parent="1">
          <mxGeometry x="265" y="510" width="70" height="40" as="geometry" />
        </mxCell>
        <mxCell id="9VuMjuRBCp5YEHV3CmES-10" value="" style="endArrow=none;html=1;rounded=0;entryX=0.5;entryY=1;entryDx=0;entryDy=0;exitX=0.5;exitY=0;exitDx=0;exitDy=0;" edge="1" parent="1" source="9VuMjuRBCp5YEHV3CmES-6" target="9VuMjuRBCp5YEHV3CmES-9">
          <mxGeometry width="50" height="50" relative="1" as="geometry">
            <mxPoint x="470" y="850" as="sourcePoint" />
            <mxPoint x="360" y="810" as="targetPoint" />
          </mxGeometry>
        </mxCell>
        <mxCell id="9VuMjuRBCp5YEHV3CmES-11" value="Telefono" style="ellipse;whiteSpace=wrap;html=1;" vertex="1" parent="1">
          <mxGeometry x="420" y="510" width="70" height="40" as="geometry" />
        </mxCell>
        <mxCell id="9VuMjuRBCp5YEHV3CmES-12" value="" style="endArrow=none;html=1;rounded=0;entryX=0.5;entryY=1;entryDx=0;entryDy=0;exitX=1;exitY=0.5;exitDx=0;exitDy=0;" edge="1" parent="1" source="9VuMjuRBCp5YEHV3CmES-6" target="9VuMjuRBCp5YEHV3CmES-11">
          <mxGeometry width="50" height="50" relative="1" as="geometry">
            <mxPoint x="680" y="850" as="sourcePoint" />
            <mxPoint x="570" y="810" as="targetPoint" />
          </mxGeometry>
        </mxCell>
        <mxCell id="9VuMjuRBCp5YEHV3CmES-13" value="ID_Hospital" style="ellipse;whiteSpace=wrap;html=1;" vertex="1" parent="1">
          <mxGeometry x="250" y="670" width="70" height="40" as="geometry" />
        </mxCell>
        <mxCell id="9VuMjuRBCp5YEHV3CmES-14" value="" style="endArrow=none;html=1;rounded=0;entryX=0.5;entryY=0;entryDx=0;entryDy=0;exitX=0.5;exitY=1;exitDx=0;exitDy=0;" edge="1" parent="1" source="9VuMjuRBCp5YEHV3CmES-6" target="9VuMjuRBCp5YEHV3CmES-13">
          <mxGeometry width="50" height="50" relative="1" as="geometry">
            <mxPoint x="270" y="610" as="sourcePoint" />
            <mxPoint x="179" y="554" as="targetPoint" />
          </mxGeometry>
        </mxCell>
        <mxCell id="9VuMjuRBCp5YEHV3CmES-15" value="Personal" style="rounded=0;whiteSpace=wrap;html=1;" vertex="1" parent="1">
          <mxGeometry x="980" y="590" width="80" height="40" as="geometry" />
        </mxCell>
        <mxCell id="9VuMjuRBCp5YEHV3CmES-16" value="Puesto" style="ellipse;whiteSpace=wrap;html=1;" vertex="1" parent="1">
          <mxGeometry x="990" y="510" width="70" height="40" as="geometry" />
        </mxCell>
        <mxCell id="9VuMjuRBCp5YEHV3CmES-17" value="Antiguedad" style="ellipse;whiteSpace=wrap;html=1;" vertex="1" parent="1">
          <mxGeometry x="1160" y="550" width="70" height="40" as="geometry" />
        </mxCell>
        <mxCell id="9VuMjuRBCp5YEHV3CmES-18" value="Horario" style="ellipse;whiteSpace=wrap;html=1;" vertex="1" parent="1">
          <mxGeometry x="830" y="550" width="70" height="40" as="geometry" />
        </mxCell>
        <mxCell id="9VuMjuRBCp5YEHV3CmES-19" value="Capcitacion" style="ellipse;whiteSpace=wrap;html=1;" vertex="1" parent="1">
          <mxGeometry x="870" y="670" width="70" height="40" as="geometry" />
        </mxCell>
        <mxCell id="9VuMjuRBCp5YEHV3CmES-20" value="" style="endArrow=none;html=1;rounded=0;exitX=0;exitY=0.5;exitDx=0;exitDy=0;" edge="1" parent="1" source="9VuMjuRBCp5YEHV3CmES-15" target="9VuMjuRBCp5YEHV3CmES-18">
          <mxGeometry width="50" height="50" relative="1" as="geometry">
            <mxPoint x="990" y="630" as="sourcePoint" />
            <mxPoint x="859" y="584" as="targetPoint" />
          </mxGeometry>
        </mxCell>
        <mxCell id="9VuMjuRBCp5YEHV3CmES-21" value="" style="endArrow=none;html=1;rounded=0;exitX=0.25;exitY=1;exitDx=0;exitDy=0;entryX=1;entryY=0;entryDx=0;entryDy=0;" edge="1" parent="1" source="9VuMjuRBCp5YEHV3CmES-15" target="9VuMjuRBCp5YEHV3CmES-19">
          <mxGeometry width="50" height="50" relative="1" as="geometry">
            <mxPoint x="990" y="620" as="sourcePoint" />
            <mxPoint x="905" y="590" as="targetPoint" />
          </mxGeometry>
        </mxCell>
        <mxCell id="9VuMjuRBCp5YEHV3CmES-22" value="" style="endArrow=none;html=1;rounded=0;exitX=0.5;exitY=0;exitDx=0;exitDy=0;entryX=0.5;entryY=1;entryDx=0;entryDy=0;" edge="1" parent="1" source="9VuMjuRBCp5YEHV3CmES-15" target="9VuMjuRBCp5YEHV3CmES-16">
          <mxGeometry width="50" height="50" relative="1" as="geometry">
            <mxPoint x="1000" y="630" as="sourcePoint" />
            <mxPoint x="915" y="600" as="targetPoint" />
          </mxGeometry>
        </mxCell>
        <mxCell id="9VuMjuRBCp5YEHV3CmES-23" value="" style="endArrow=none;html=1;rounded=0;exitX=1;exitY=0.5;exitDx=0;exitDy=0;entryX=0;entryY=1;entryDx=0;entryDy=0;" edge="1" parent="1" source="9VuMjuRBCp5YEHV3CmES-15" target="9VuMjuRBCp5YEHV3CmES-17">
          <mxGeometry width="50" height="50" relative="1" as="geometry">
            <mxPoint x="1010" y="640" as="sourcePoint" />
            <mxPoint x="925" y="610" as="targetPoint" />
          </mxGeometry>
        </mxCell>
        <mxCell id="9VuMjuRBCp5YEHV3CmES-24" value="ID_Personal" style="ellipse;whiteSpace=wrap;html=1;" vertex="1" parent="1">
          <mxGeometry x="1080" y="690" width="70" height="40" as="geometry" />
        </mxCell>
        <mxCell id="9VuMjuRBCp5YEHV3CmES-25" value="" style="endArrow=none;html=1;rounded=0;exitX=0.75;exitY=1;exitDx=0;exitDy=0;entryX=0;entryY=0;entryDx=0;entryDy=0;" edge="1" parent="1" source="9VuMjuRBCp5YEHV3CmES-15" target="9VuMjuRBCp5YEHV3CmES-24">
          <mxGeometry width="50" height="50" relative="1" as="geometry">
            <mxPoint x="1070" y="620" as="sourcePoint" />
            <mxPoint x="1181" y="594" as="targetPoint" />
          </mxGeometry>
        </mxCell>
        <mxCell id="9VuMjuRBCp5YEHV3CmES-26" value="ID_Hospital" style="rhombus;whiteSpace=wrap;html=1;" vertex="1" parent="1">
          <mxGeometry x="530" y="310" width="80" height="80" as="geometry" />
        </mxCell>
        <mxCell id="9VuMjuRBCp5YEHV3CmES-27" value="" style="edgeStyle=entityRelationEdgeStyle;fontSize=12;html=1;endArrow=ERoneToMany;startArrow=ERmandOne;rounded=0;entryX=0;entryY=0;entryDx=0;entryDy=0;exitX=1;exitY=0.5;exitDx=0;exitDy=0;exitPerimeter=0;" edge="1" parent="1" source="9VuMjuRBCp5YEHV3CmES-33">
          <mxGeometry width="100" height="100" relative="1" as="geometry">
            <mxPoint x="370" y="260" as="sourcePoint" />
            <mxPoint x="530" y="350" as="targetPoint" />
            <Array as="points">
              <mxPoint x="310" y="220" />
              <mxPoint x="480" y="150" />
              <mxPoint x="500" y="360" />
              <mxPoint x="450" y="360" />
              <mxPoint x="350" y="680" />
              <mxPoint x="310" y="390" />
              <mxPoint x="290" y="310" />
              <mxPoint x="290" y="400" />
              <mxPoint x="280" y="310" />
              <mxPoint x="280" y="340" />
            </Array>
          </mxGeometry>
        </mxCell>
        <mxCell id="9VuMjuRBCp5YEHV3CmES-30" value="" style="endArrow=none;html=1;rounded=0;exitX=0.75;exitY=0;exitDx=0;exitDy=0;" edge="1" parent="1" source="9VuMjuRBCp5YEHV3CmES-6" target="9VuMjuRBCp5YEHV3CmES-26">
          <mxGeometry width="50" height="50" relative="1" as="geometry">
            <mxPoint x="350" y="620" as="sourcePoint" />
            <mxPoint x="465" y="560" as="targetPoint" />
          </mxGeometry>
        </mxCell>
        <mxCell id="9VuMjuRBCp5YEHV3CmES-33" value="N° de Paciente" style="strokeWidth=2;html=1;shape=mxgraph.flowchart.decision;whiteSpace=wrap;" vertex="1" parent="1">
          <mxGeometry x="245" y="270" width="80" height="90" as="geometry" />
        </mxCell>
        <mxCell id="9VuMjuRBCp5YEHV3CmES-34" value="" style="edgeStyle=entityRelationEdgeStyle;fontSize=12;html=1;endArrow=ERoneToMany;startArrow=ERmandOne;rounded=0;exitX=1;exitY=0.5;exitDx=0;exitDy=0;entryX=0.5;entryY=1;entryDx=0;entryDy=0;" edge="1" parent="1" source="9VuMjuRBCp5YEHV3CmES-26" target="BkAY-ERydtgyIVEjng0j-17">
          <mxGeometry width="100" height="100" relative="1" as="geometry">
            <mxPoint x="260" y="270" as="sourcePoint" />
            <mxPoint x="960" y="214" as="targetPoint" />
            <Array as="points">
              <mxPoint x="330" y="200" />
              <mxPoint x="500" y="130" />
              <mxPoint x="520" y="340" />
              <mxPoint x="470" y="340" />
              <mxPoint x="370" y="660" />
              <mxPoint x="330" y="370" />
              <mxPoint x="310" y="290" />
              <mxPoint x="310" y="380" />
              <mxPoint x="300" y="290" />
              <mxPoint x="300" y="320" />
            </Array>
          </mxGeometry>
        </mxCell>
        <mxCell id="9VuMjuRBCp5YEHV3CmES-35" value="" style="endArrow=none;html=1;rounded=0;exitX=0.5;exitY=0;exitDx=0;exitDy=0;exitPerimeter=0;" edge="1" parent="1" source="9VuMjuRBCp5YEHV3CmES-33">
          <mxGeometry width="50" height="50" relative="1" as="geometry">
            <mxPoint x="310" y="160" as="sourcePoint" />
            <mxPoint x="300" y="190" as="targetPoint" />
          </mxGeometry>
        </mxCell>
        <mxCell id="9VuMjuRBCp5YEHV3CmES-36" value="" style="edgeStyle=entityRelationEdgeStyle;fontSize=12;html=1;endArrow=ERmandOne;startArrow=ERmandOne;rounded=0;entryX=0;entryY=0.75;entryDx=0;entryDy=0;exitX=0.5;exitY=1;exitDx=0;exitDy=0;exitPerimeter=0;" edge="1" parent="1" source="9VuMjuRBCp5YEHV3CmES-33" target="BkAY-ERydtgyIVEjng0j-26">
          <mxGeometry width="100" height="100" relative="1" as="geometry">
            <mxPoint x="115" y="430" as="sourcePoint" />
            <mxPoint x="1165" y="610" as="targetPoint" />
            <Array as="points">
              <mxPoint x="130" y="470" />
              <mxPoint x="585" y="370" />
              <mxPoint x="170" y="670" />
              <mxPoint x="635" y="610" />
              <mxPoint x="675" y="400" />
              <mxPoint x="665" y="570" />
            </Array>
          </mxGeometry>
        </mxCell>
        <mxCell id="9VuMjuRBCp5YEHV3CmES-37" value="" style="edgeStyle=entityRelationEdgeStyle;fontSize=12;html=1;endArrow=ERoneToMany;startArrow=ERmandOne;rounded=0;exitX=0.5;exitY=1;exitDx=0;exitDy=0;entryX=0;entryY=0;entryDx=0;entryDy=0;" edge="1" parent="1" source="9VuMjuRBCp5YEHV3CmES-26" target="9VuMjuRBCp5YEHV3CmES-15">
          <mxGeometry width="100" height="100" relative="1" as="geometry">
            <mxPoint x="820" y="410" as="sourcePoint" />
            <mxPoint x="920" y="310" as="targetPoint" />
          </mxGeometry>
        </mxCell>
        <mxCell id="9VuMjuRBCp5YEHV3CmES-38" value="ID_Medico" style="rhombus;whiteSpace=wrap;html=1;" vertex="1" parent="1">
          <mxGeometry x="870" y="320" width="80" height="80" as="geometry" />
        </mxCell>
        <mxCell id="9VuMjuRBCp5YEHV3CmES-39" value="" style="endArrow=none;html=1;rounded=0;entryX=0;entryY=0;entryDx=0;entryDy=0;exitX=0.75;exitY=1;exitDx=0;exitDy=0;" edge="1" parent="1" source="BkAY-ERydtgyIVEjng0j-17" target="9VuMjuRBCp5YEHV3CmES-38">
          <mxGeometry width="50" height="50" relative="1" as="geometry">
            <mxPoint x="860" y="150" as="sourcePoint" />
            <mxPoint x="905" y="90" as="targetPoint" />
          </mxGeometry>
        </mxCell>
        <mxCell id="9VuMjuRBCp5YEHV3CmES-40" value="" style="edgeStyle=entityRelationEdgeStyle;fontSize=12;html=1;endArrow=ERoneToMany;startArrow=ERoneToMany;rounded=0;exitX=1;exitY=0.5;exitDx=0;exitDy=0;entryX=0.5;entryY=1;entryDx=0;entryDy=0;" edge="1" parent="1" source="9VuMjuRBCp5YEHV3CmES-38" target="BkAY-ERydtgyIVEjng0j-26">
          <mxGeometry width="100" height="100" relative="1" as="geometry">
            <mxPoint x="820" y="410" as="sourcePoint" />
            <mxPoint x="920" y="310" as="targetPoint" />
          </mxGeometry>
        </mxCell>
      </root>
    </mxGraphModel>
  </diagram>
  <diagram id="vS7-jS8rgRlx-qeF3oVw" name="Página-2">
    <mxGraphModel dx="1236" dy="541" grid="1" gridSize="10" guides="1" tooltips="1" connect="1" arrows="1" fold="1" page="1" pageScale="1" pageWidth="827" pageHeight="1169" math="0" shadow="0">
      <root>
        <mxCell id="0" />
        <mxCell id="1" parent="0" />
        <mxCell id="osJfZ-UJXm_4ArlpplaK-1" value="Paciente" style="shape=table;startSize=30;container=1;collapsible=1;childLayout=tableLayout;fixedRows=1;rowLines=0;fontStyle=1;align=center;resizeLast=1;html=1;" parent="1" vertex="1">
          <mxGeometry x="80" y="40" width="180" height="180.0000000000001" as="geometry" />
        </mxCell>
        <mxCell id="osJfZ-UJXm_4ArlpplaK-2" value="" style="shape=tableRow;horizontal=0;startSize=0;swimlaneHead=0;swimlaneBody=0;fillColor=none;collapsible=0;dropTarget=0;points=[[0,0.5],[1,0.5]];portConstraint=eastwest;top=0;left=0;right=0;bottom=1;" parent="osJfZ-UJXm_4ArlpplaK-1" vertex="1">
          <mxGeometry y="30" width="180" height="30" as="geometry" />
        </mxCell>
        <mxCell id="osJfZ-UJXm_4ArlpplaK-3" value="PK" style="shape=partialRectangle;connectable=0;fillColor=none;top=0;left=0;bottom=0;right=0;fontStyle=1;overflow=hidden;whiteSpace=wrap;html=1;" parent="osJfZ-UJXm_4ArlpplaK-2" vertex="1">
          <mxGeometry width="30" height="30" as="geometry">
            <mxRectangle width="30" height="30" as="alternateBounds" />
          </mxGeometry>
        </mxCell>
        <mxCell id="osJfZ-UJXm_4ArlpplaK-4" value="N° de Paciente" style="shape=partialRectangle;connectable=0;fillColor=none;top=0;left=0;bottom=0;right=0;align=left;spacingLeft=6;fontStyle=5;overflow=hidden;whiteSpace=wrap;html=1;" parent="osJfZ-UJXm_4ArlpplaK-2" vertex="1">
          <mxGeometry x="30" width="150" height="30" as="geometry">
            <mxRectangle width="150" height="30" as="alternateBounds" />
          </mxGeometry>
        </mxCell>
        <mxCell id="osJfZ-UJXm_4ArlpplaK-5" value="" style="shape=tableRow;horizontal=0;startSize=0;swimlaneHead=0;swimlaneBody=0;fillColor=none;collapsible=0;dropTarget=0;points=[[0,0.5],[1,0.5]];portConstraint=eastwest;top=0;left=0;right=0;bottom=0;" parent="osJfZ-UJXm_4ArlpplaK-1" vertex="1">
          <mxGeometry y="60" width="180" height="30" as="geometry" />
        </mxCell>
        <mxCell id="osJfZ-UJXm_4ArlpplaK-6" value="" style="shape=partialRectangle;connectable=0;fillColor=none;top=0;left=0;bottom=0;right=0;editable=1;overflow=hidden;whiteSpace=wrap;html=1;" parent="osJfZ-UJXm_4ArlpplaK-5" vertex="1">
          <mxGeometry width="30" height="30" as="geometry">
            <mxRectangle width="30" height="30" as="alternateBounds" />
          </mxGeometry>
        </mxCell>
        <mxCell id="osJfZ-UJXm_4ArlpplaK-7" value="Nombre" style="shape=partialRectangle;connectable=0;fillColor=none;top=0;left=0;bottom=0;right=0;align=left;spacingLeft=6;overflow=hidden;whiteSpace=wrap;html=1;" parent="osJfZ-UJXm_4ArlpplaK-5" vertex="1">
          <mxGeometry x="30" width="150" height="30" as="geometry">
            <mxRectangle width="150" height="30" as="alternateBounds" />
          </mxGeometry>
        </mxCell>
        <mxCell id="osJfZ-UJXm_4ArlpplaK-8" value="" style="shape=tableRow;horizontal=0;startSize=0;swimlaneHead=0;swimlaneBody=0;fillColor=none;collapsible=0;dropTarget=0;points=[[0,0.5],[1,0.5]];portConstraint=eastwest;top=0;left=0;right=0;bottom=0;" parent="osJfZ-UJXm_4ArlpplaK-1" vertex="1">
          <mxGeometry y="90" width="180" height="30" as="geometry" />
        </mxCell>
        <mxCell id="osJfZ-UJXm_4ArlpplaK-9" value="" style="shape=partialRectangle;connectable=0;fillColor=none;top=0;left=0;bottom=0;right=0;editable=1;overflow=hidden;whiteSpace=wrap;html=1;" parent="osJfZ-UJXm_4ArlpplaK-8" vertex="1">
          <mxGeometry width="30" height="30" as="geometry">
            <mxRectangle width="30" height="30" as="alternateBounds" />
          </mxGeometry>
        </mxCell>
        <mxCell id="osJfZ-UJXm_4ArlpplaK-10" value="Edad" style="shape=partialRectangle;connectable=0;fillColor=none;top=0;left=0;bottom=0;right=0;align=left;spacingLeft=6;overflow=hidden;whiteSpace=wrap;html=1;" parent="osJfZ-UJXm_4ArlpplaK-8" vertex="1">
          <mxGeometry x="30" width="150" height="30" as="geometry">
            <mxRectangle width="150" height="30" as="alternateBounds" />
          </mxGeometry>
        </mxCell>
        <mxCell id="osJfZ-UJXm_4ArlpplaK-11" value="" style="shape=tableRow;horizontal=0;startSize=0;swimlaneHead=0;swimlaneBody=0;fillColor=none;collapsible=0;dropTarget=0;points=[[0,0.5],[1,0.5]];portConstraint=eastwest;top=0;left=0;right=0;bottom=0;" parent="osJfZ-UJXm_4ArlpplaK-1" vertex="1">
          <mxGeometry y="120" width="180" height="30" as="geometry" />
        </mxCell>
        <mxCell id="osJfZ-UJXm_4ArlpplaK-12" value="" style="shape=partialRectangle;connectable=0;fillColor=none;top=0;left=0;bottom=0;right=0;editable=1;overflow=hidden;whiteSpace=wrap;html=1;" parent="osJfZ-UJXm_4ArlpplaK-11" vertex="1">
          <mxGeometry width="30" height="30" as="geometry">
            <mxRectangle width="30" height="30" as="alternateBounds" />
          </mxGeometry>
        </mxCell>
        <mxCell id="osJfZ-UJXm_4ArlpplaK-13" value="Genero" style="shape=partialRectangle;connectable=0;fillColor=none;top=0;left=0;bottom=0;right=0;align=left;spacingLeft=6;overflow=hidden;whiteSpace=wrap;html=1;" parent="osJfZ-UJXm_4ArlpplaK-11" vertex="1">
          <mxGeometry x="30" width="150" height="30" as="geometry">
            <mxRectangle width="150" height="30" as="alternateBounds" />
          </mxGeometry>
        </mxCell>
        <mxCell id="t79JXVD_c0x5npp1XjA6-1" style="shape=tableRow;horizontal=0;startSize=0;swimlaneHead=0;swimlaneBody=0;fillColor=none;collapsible=0;dropTarget=0;points=[[0,0.5],[1,0.5]];portConstraint=eastwest;top=0;left=0;right=0;bottom=0;" parent="osJfZ-UJXm_4ArlpplaK-1" vertex="1">
          <mxGeometry y="150" width="180" height="30" as="geometry" />
        </mxCell>
        <mxCell id="t79JXVD_c0x5npp1XjA6-2" style="shape=partialRectangle;connectable=0;fillColor=none;top=0;left=0;bottom=0;right=0;editable=1;overflow=hidden;whiteSpace=wrap;html=1;" parent="t79JXVD_c0x5npp1XjA6-1" vertex="1">
          <mxGeometry width="30" height="30" as="geometry">
            <mxRectangle width="30" height="30" as="alternateBounds" />
          </mxGeometry>
        </mxCell>
        <mxCell id="t79JXVD_c0x5npp1XjA6-3" value="Fecha de Ingreso" style="shape=partialRectangle;connectable=0;fillColor=none;top=0;left=0;bottom=0;right=0;align=left;spacingLeft=6;overflow=hidden;whiteSpace=wrap;html=1;" parent="t79JXVD_c0x5npp1XjA6-1" vertex="1">
          <mxGeometry x="30" width="150" height="30" as="geometry">
            <mxRectangle width="150" height="30" as="alternateBounds" />
          </mxGeometry>
        </mxCell>
        <mxCell id="VLgTxaoioSbe3BKXZVAF-1" value="Medico" style="shape=table;startSize=30;container=1;collapsible=1;childLayout=tableLayout;fixedRows=1;rowLines=0;fontStyle=1;align=center;resizeLast=1;html=1;" parent="1" vertex="1">
          <mxGeometry x="360" y="40" width="180" height="180" as="geometry" />
        </mxCell>
        <mxCell id="VLgTxaoioSbe3BKXZVAF-2" value="" style="shape=tableRow;horizontal=0;startSize=0;swimlaneHead=0;swimlaneBody=0;fillColor=none;collapsible=0;dropTarget=0;points=[[0,0.5],[1,0.5]];portConstraint=eastwest;top=0;left=0;right=0;bottom=1;" parent="VLgTxaoioSbe3BKXZVAF-1" vertex="1">
          <mxGeometry y="30" width="180" height="30" as="geometry" />
        </mxCell>
        <mxCell id="VLgTxaoioSbe3BKXZVAF-3" value="PK" style="shape=partialRectangle;connectable=0;fillColor=none;top=0;left=0;bottom=0;right=0;fontStyle=1;overflow=hidden;whiteSpace=wrap;html=1;" parent="VLgTxaoioSbe3BKXZVAF-2" vertex="1">
          <mxGeometry width="30" height="30" as="geometry">
            <mxRectangle width="30" height="30" as="alternateBounds" />
          </mxGeometry>
        </mxCell>
        <mxCell id="VLgTxaoioSbe3BKXZVAF-4" value="UniqueID" style="shape=partialRectangle;connectable=0;fillColor=none;top=0;left=0;bottom=0;right=0;align=left;spacingLeft=6;fontStyle=5;overflow=hidden;whiteSpace=wrap;html=1;" parent="VLgTxaoioSbe3BKXZVAF-2" vertex="1">
          <mxGeometry x="30" width="150" height="30" as="geometry">
            <mxRectangle width="150" height="30" as="alternateBounds" />
          </mxGeometry>
        </mxCell>
        <mxCell id="VLgTxaoioSbe3BKXZVAF-5" value="" style="shape=tableRow;horizontal=0;startSize=0;swimlaneHead=0;swimlaneBody=0;fillColor=none;collapsible=0;dropTarget=0;points=[[0,0.5],[1,0.5]];portConstraint=eastwest;top=0;left=0;right=0;bottom=0;" parent="VLgTxaoioSbe3BKXZVAF-1" vertex="1">
          <mxGeometry y="60" width="180" height="30" as="geometry" />
        </mxCell>
        <mxCell id="VLgTxaoioSbe3BKXZVAF-6" value="" style="shape=partialRectangle;connectable=0;fillColor=none;top=0;left=0;bottom=0;right=0;editable=1;overflow=hidden;whiteSpace=wrap;html=1;" parent="VLgTxaoioSbe3BKXZVAF-5" vertex="1">
          <mxGeometry width="30" height="30" as="geometry">
            <mxRectangle width="30" height="30" as="alternateBounds" />
          </mxGeometry>
        </mxCell>
        <mxCell id="VLgTxaoioSbe3BKXZVAF-7" value="Nombre" style="shape=partialRectangle;connectable=0;fillColor=none;top=0;left=0;bottom=0;right=0;align=left;spacingLeft=6;overflow=hidden;whiteSpace=wrap;html=1;" parent="VLgTxaoioSbe3BKXZVAF-5" vertex="1">
          <mxGeometry x="30" width="150" height="30" as="geometry">
            <mxRectangle width="150" height="30" as="alternateBounds" />
          </mxGeometry>
        </mxCell>
        <mxCell id="VLgTxaoioSbe3BKXZVAF-8" value="" style="shape=tableRow;horizontal=0;startSize=0;swimlaneHead=0;swimlaneBody=0;fillColor=none;collapsible=0;dropTarget=0;points=[[0,0.5],[1,0.5]];portConstraint=eastwest;top=0;left=0;right=0;bottom=0;" parent="VLgTxaoioSbe3BKXZVAF-1" vertex="1">
          <mxGeometry y="90" width="180" height="30" as="geometry" />
        </mxCell>
        <mxCell id="VLgTxaoioSbe3BKXZVAF-9" value="" style="shape=partialRectangle;connectable=0;fillColor=none;top=0;left=0;bottom=0;right=0;editable=1;overflow=hidden;whiteSpace=wrap;html=1;" parent="VLgTxaoioSbe3BKXZVAF-8" vertex="1">
          <mxGeometry width="30" height="30" as="geometry">
            <mxRectangle width="30" height="30" as="alternateBounds" />
          </mxGeometry>
        </mxCell>
        <mxCell id="VLgTxaoioSbe3BKXZVAF-10" value="Cedula Profesional" style="shape=partialRectangle;connectable=0;fillColor=none;top=0;left=0;bottom=0;right=0;align=left;spacingLeft=6;overflow=hidden;whiteSpace=wrap;html=1;" parent="VLgTxaoioSbe3BKXZVAF-8" vertex="1">
          <mxGeometry x="30" width="150" height="30" as="geometry">
            <mxRectangle width="150" height="30" as="alternateBounds" />
          </mxGeometry>
        </mxCell>
        <mxCell id="VLgTxaoioSbe3BKXZVAF-11" value="" style="shape=tableRow;horizontal=0;startSize=0;swimlaneHead=0;swimlaneBody=0;fillColor=none;collapsible=0;dropTarget=0;points=[[0,0.5],[1,0.5]];portConstraint=eastwest;top=0;left=0;right=0;bottom=0;" parent="VLgTxaoioSbe3BKXZVAF-1" vertex="1">
          <mxGeometry y="120" width="180" height="30" as="geometry" />
        </mxCell>
        <mxCell id="VLgTxaoioSbe3BKXZVAF-12" value="" style="shape=partialRectangle;connectable=0;fillColor=none;top=0;left=0;bottom=0;right=0;editable=1;overflow=hidden;whiteSpace=wrap;html=1;" parent="VLgTxaoioSbe3BKXZVAF-11" vertex="1">
          <mxGeometry width="30" height="30" as="geometry">
            <mxRectangle width="30" height="30" as="alternateBounds" />
          </mxGeometry>
        </mxCell>
        <mxCell id="VLgTxaoioSbe3BKXZVAF-13" value="Especialidad" style="shape=partialRectangle;connectable=0;fillColor=none;top=0;left=0;bottom=0;right=0;align=left;spacingLeft=6;overflow=hidden;whiteSpace=wrap;html=1;" parent="VLgTxaoioSbe3BKXZVAF-11" vertex="1">
          <mxGeometry x="30" width="150" height="30" as="geometry">
            <mxRectangle width="150" height="30" as="alternateBounds" />
          </mxGeometry>
        </mxCell>
        <mxCell id="_CO0KsRSzRWnH4LE8Y3--1" style="shape=tableRow;horizontal=0;startSize=0;swimlaneHead=0;swimlaneBody=0;fillColor=none;collapsible=0;dropTarget=0;points=[[0,0.5],[1,0.5]];portConstraint=eastwest;top=0;left=0;right=0;bottom=0;" parent="VLgTxaoioSbe3BKXZVAF-1" vertex="1">
          <mxGeometry y="150" width="180" height="30" as="geometry" />
        </mxCell>
        <mxCell id="_CO0KsRSzRWnH4LE8Y3--2" style="shape=partialRectangle;connectable=0;fillColor=none;top=0;left=0;bottom=0;right=0;editable=1;overflow=hidden;whiteSpace=wrap;html=1;" parent="_CO0KsRSzRWnH4LE8Y3--1" vertex="1">
          <mxGeometry width="30" height="30" as="geometry">
            <mxRectangle width="30" height="30" as="alternateBounds" />
          </mxGeometry>
        </mxCell>
        <mxCell id="_CO0KsRSzRWnH4LE8Y3--3" value="Cargo" style="shape=partialRectangle;connectable=0;fillColor=none;top=0;left=0;bottom=0;right=0;align=left;spacingLeft=6;overflow=hidden;whiteSpace=wrap;html=1;" parent="_CO0KsRSzRWnH4LE8Y3--1" vertex="1">
          <mxGeometry x="30" width="150" height="30" as="geometry">
            <mxRectangle width="150" height="30" as="alternateBounds" />
          </mxGeometry>
        </mxCell>
        <mxCell id="_CO0KsRSzRWnH4LE8Y3--4" value="Analisis" style="shape=table;startSize=30;container=1;collapsible=1;childLayout=tableLayout;fixedRows=1;rowLines=0;fontStyle=1;align=center;resizeLast=1;html=1;" parent="1" vertex="1">
          <mxGeometry x="80" y="320" width="180" height="140" as="geometry" />
        </mxCell>
        <mxCell id="_CO0KsRSzRWnH4LE8Y3--5" value="" style="shape=tableRow;horizontal=0;startSize=0;swimlaneHead=0;swimlaneBody=0;fillColor=none;collapsible=0;dropTarget=0;points=[[0,0.5],[1,0.5]];portConstraint=eastwest;top=0;left=0;right=0;bottom=1;" parent="_CO0KsRSzRWnH4LE8Y3--4" vertex="1">
          <mxGeometry y="30" width="180" height="30" as="geometry" />
        </mxCell>
        <mxCell id="_CO0KsRSzRWnH4LE8Y3--6" value="PK" style="shape=partialRectangle;connectable=0;fillColor=none;top=0;left=0;bottom=0;right=0;fontStyle=1;overflow=hidden;whiteSpace=wrap;html=1;" parent="_CO0KsRSzRWnH4LE8Y3--5" vertex="1">
          <mxGeometry width="30" height="30" as="geometry">
            <mxRectangle width="30" height="30" as="alternateBounds" />
          </mxGeometry>
        </mxCell>
        <mxCell id="_CO0KsRSzRWnH4LE8Y3--7" value="UniqueID" style="shape=partialRectangle;connectable=0;fillColor=none;top=0;left=0;bottom=0;right=0;align=left;spacingLeft=6;fontStyle=5;overflow=hidden;whiteSpace=wrap;html=1;" parent="_CO0KsRSzRWnH4LE8Y3--5" vertex="1">
          <mxGeometry x="30" width="150" height="30" as="geometry">
            <mxRectangle width="150" height="30" as="alternateBounds" />
          </mxGeometry>
        </mxCell>
        <mxCell id="_CO0KsRSzRWnH4LE8Y3--8" value="" style="shape=tableRow;horizontal=0;startSize=0;swimlaneHead=0;swimlaneBody=0;fillColor=none;collapsible=0;dropTarget=0;points=[[0,0.5],[1,0.5]];portConstraint=eastwest;top=0;left=0;right=0;bottom=0;" parent="_CO0KsRSzRWnH4LE8Y3--4" vertex="1">
          <mxGeometry y="60" width="180" height="20" as="geometry" />
        </mxCell>
        <mxCell id="_CO0KsRSzRWnH4LE8Y3--9" value="" style="shape=partialRectangle;connectable=0;fillColor=none;top=0;left=0;bottom=0;right=0;editable=1;overflow=hidden;whiteSpace=wrap;html=1;" parent="_CO0KsRSzRWnH4LE8Y3--8" vertex="1">
          <mxGeometry width="30" height="20" as="geometry">
            <mxRectangle width="30" height="20" as="alternateBounds" />
          </mxGeometry>
        </mxCell>
        <mxCell id="_CO0KsRSzRWnH4LE8Y3--10" value="&lt;div&gt;N° de Paciente&lt;/div&gt;" style="shape=partialRectangle;connectable=0;fillColor=none;top=0;left=0;bottom=0;right=0;align=left;spacingLeft=6;overflow=hidden;whiteSpace=wrap;html=1;" parent="_CO0KsRSzRWnH4LE8Y3--8" vertex="1">
          <mxGeometry x="30" width="150" height="20" as="geometry">
            <mxRectangle width="150" height="20" as="alternateBounds" />
          </mxGeometry>
        </mxCell>
        <mxCell id="_CO0KsRSzRWnH4LE8Y3--11" value="" style="shape=tableRow;horizontal=0;startSize=0;swimlaneHead=0;swimlaneBody=0;fillColor=none;collapsible=0;dropTarget=0;points=[[0,0.5],[1,0.5]];portConstraint=eastwest;top=0;left=0;right=0;bottom=0;" parent="_CO0KsRSzRWnH4LE8Y3--4" vertex="1">
          <mxGeometry y="80" width="180" height="30" as="geometry" />
        </mxCell>
        <mxCell id="_CO0KsRSzRWnH4LE8Y3--12" value="" style="shape=partialRectangle;connectable=0;fillColor=none;top=0;left=0;bottom=0;right=0;editable=1;overflow=hidden;whiteSpace=wrap;html=1;" parent="_CO0KsRSzRWnH4LE8Y3--11" vertex="1">
          <mxGeometry width="30" height="30" as="geometry">
            <mxRectangle width="30" height="30" as="alternateBounds" />
          </mxGeometry>
        </mxCell>
        <mxCell id="_CO0KsRSzRWnH4LE8Y3--13" value="Tipo" style="shape=partialRectangle;connectable=0;fillColor=none;top=0;left=0;bottom=0;right=0;align=left;spacingLeft=6;overflow=hidden;whiteSpace=wrap;html=1;" parent="_CO0KsRSzRWnH4LE8Y3--11" vertex="1">
          <mxGeometry x="30" width="150" height="30" as="geometry">
            <mxRectangle width="150" height="30" as="alternateBounds" />
          </mxGeometry>
        </mxCell>
        <mxCell id="_CO0KsRSzRWnH4LE8Y3--14" value="" style="shape=tableRow;horizontal=0;startSize=0;swimlaneHead=0;swimlaneBody=0;fillColor=none;collapsible=0;dropTarget=0;points=[[0,0.5],[1,0.5]];portConstraint=eastwest;top=0;left=0;right=0;bottom=0;" parent="_CO0KsRSzRWnH4LE8Y3--4" vertex="1">
          <mxGeometry y="110" width="180" height="30" as="geometry" />
        </mxCell>
        <mxCell id="_CO0KsRSzRWnH4LE8Y3--15" value="" style="shape=partialRectangle;connectable=0;fillColor=none;top=0;left=0;bottom=0;right=0;editable=1;overflow=hidden;whiteSpace=wrap;html=1;" parent="_CO0KsRSzRWnH4LE8Y3--14" vertex="1">
          <mxGeometry width="30" height="30" as="geometry">
            <mxRectangle width="30" height="30" as="alternateBounds" />
          </mxGeometry>
        </mxCell>
        <mxCell id="_CO0KsRSzRWnH4LE8Y3--16" value="Resultado" style="shape=partialRectangle;connectable=0;fillColor=none;top=0;left=0;bottom=0;right=0;align=left;spacingLeft=6;overflow=hidden;whiteSpace=wrap;html=1;" parent="_CO0KsRSzRWnH4LE8Y3--14" vertex="1">
          <mxGeometry x="30" width="150" height="30" as="geometry">
            <mxRectangle width="150" height="30" as="alternateBounds" />
          </mxGeometry>
        </mxCell>
      </root>
    </mxGraphModel>
  </diagram>
</mxfile>
